<svg xmlns="http://www.w3.org/2000/svg" version="1.1" xmlns:xlink="http://www.w3.org/1999/xlink" xmlns:svgjs="http://svgjs.dev/svgjs" width="1440" height="560" preserveAspectRatio="none" viewBox="0 0 1440 560"><g mask="url(&quot;#SvgjsMask1105&quot;)" fill="none"><path d="M160.12 370.99L248.45 421.99L248.45 523.99L160.12 574.99L71.78 523.99L71.78 421.99zM71.78 523.99L160.12 574.99L160.12 676.99L71.78 727.99L-16.56 676.99L-16.56 574.99zM248.45 217.99L336.79 268.99L336.79 370.99L248.45 421.99L160.12 370.99L160.12 268.99zM425.13 -88.01L513.47 -37.01L513.47 64.99L425.13 115.99L336.79 64.99L336.79 -37.01zM513.47 370.99L601.8 421.99L601.8 523.99L513.47 574.99L425.13 523.99L425.13 421.99zM690.14 370.99L778.48 421.99L778.48 523.99L690.14 574.99L601.8 523.99L601.8 421.99zM778.48 217.99L866.81 268.99L866.81 370.99L778.48 421.99L690.14 370.99L690.14 268.99zM1043.49 64.99L1131.83 115.99L1131.83 217.99L1043.49 268.99L955.15 217.99L955.15 115.99zM955.15 523.99L1043.49 574.99L1043.49 676.99L955.15 727.99L866.81 676.99L866.81 574.99zM1131.83 -88.01L1220.16 -37.01L1220.16 64.99L1131.83 115.99L1043.49 64.99L1043.49 -37.01zM1308.5 -88.01L1396.84 -37.01L1396.84 64.99L1308.5 115.99L1220.16 64.99L1220.16 -37.01zM1396.84 64.99L1485.17 115.99L1485.17 217.99L1396.84 268.99L1308.5 217.99L1308.5 115.99zM1308.5 217.99L1396.84 268.99L1396.84 370.99L1308.5 421.99L1220.16 370.99L1220.16 268.99zM1396.84 370.99L1485.17 421.99L1485.17 523.99L1396.84 574.99L1308.5 523.99L1308.5 421.99zM1308.5 523.99L1396.84 574.99L1396.84 676.99L1308.5 727.99L1220.16 676.99L1220.16 574.99z" stroke="rgba(3, 223, 59, 0.15)" stroke-width="2"></path><path d="M149.92 370.99 a10.2 10.2 0 1 0 20.4 0 a10.2 10.2 0 1 0 -20.4 0zM238.25 421.99 a10.2 10.2 0 1 0 20.4 0 a10.2 10.2 0 1 0 -20.4 0zM238.25 523.99 a10.2 10.2 0 1 0 20.4 0 a10.2 10.2 0 1 0 -20.4 0zM149.92 574.99 a10.2 10.2 0 1 0 20.4 0 a10.2 10.2 0 1 0 -20.4 0zM61.58 523.99 a10.2 10.2 0 1 0 20.4 0 a10.2 10.2 0 1 0 -20.4 0zM61.58 421.99 a10.2 10.2 0 1 0 20.4 0 a10.2 10.2 0 1 0 -20.4 0zM149.92 676.99 a10.2 10.2 0 1 0 20.4 0 a10.2 10.2 0 1 0 -20.4 0zM61.58 727.99 a10.2 10.2 0 1 0 20.4 0 a10.2 10.2 0 1 0 -20.4 0zM-26.76 676.99 a10.2 10.2 0 1 0 20.4 0 a10.2 10.2 0 1 0 -20.4 0zM-26.76 574.99 a10.2 10.2 0 1 0 20.4 0 a10.2 10.2 0 1 0 -20.4 0zM238.25 217.99 a10.2 10.2 0 1 0 20.4 0 a10.2 10.2 0 1 0 -20.4 0zM326.59 268.99 a10.2 10.2 0 1 0 20.4 0 a10.2 10.2 0 1 0 -20.4 0zM326.59 370.99 a10.2 10.2 0 1 0 20.4 0 a10.2 10.2 0 1 0 -20.4 0zM149.92 268.99 a10.2 10.2 0 1 0 20.4 0 a10.2 10.2 0 1 0 -20.4 0zM414.93 -88.01 a10.2 10.2 0 1 0 20.4 0 a10.2 10.2 0 1 0 -20.4 0zM503.27 -37.01 a10.2 10.2 0 1 0 20.4 0 a10.2 10.2 0 1 0 -20.4 0zM503.27 64.99 a10.2 10.2 0 1 0 20.4 0 a10.2 10.2 0 1 0 -20.4 0zM414.93 115.99 a10.2 10.2 0 1 0 20.4 0 a10.2 10.2 0 1 0 -20.4 0zM326.59 64.99 a10.2 10.2 0 1 0 20.4 0 a10.2 10.2 0 1 0 -20.4 0zM326.59 -37.01 a10.2 10.2 0 1 0 20.4 0 a10.2 10.2 0 1 0 -20.4 0zM503.27 370.99 a10.2 10.2 0 1 0 20.4 0 a10.2 10.2 0 1 0 -20.4 0zM591.6 421.99 a10.2 10.2 0 1 0 20.4 0 a10.2 10.2 0 1 0 -20.4 0zM591.6 523.99 a10.2 10.2 0 1 0 20.4 0 a10.2 10.2 0 1 0 -20.4 0zM503.27 574.99 a10.2 10.2 0 1 0 20.4 0 a10.2 10.2 0 1 0 -20.4 0zM414.93 523.99 a10.2 10.2 0 1 0 20.4 0 a10.2 10.2 0 1 0 -20.4 0zM414.93 421.99 a10.2 10.2 0 1 0 20.4 0 a10.2 10.2 0 1 0 -20.4 0zM679.94 370.99 a10.2 10.2 0 1 0 20.4 0 a10.2 10.2 0 1 0 -20.4 0zM768.28 421.99 a10.2 10.2 0 1 0 20.4 0 a10.2 10.2 0 1 0 -20.4 0zM768.28 523.99 a10.2 10.2 0 1 0 20.4 0 a10.2 10.2 0 1 0 -20.4 0zM679.94 574.99 a10.2 10.2 0 1 0 20.4 0 a10.2 10.2 0 1 0 -20.4 0zM768.28 217.99 a10.2 10.2 0 1 0 20.4 0 a10.2 10.2 0 1 0 -20.4 0zM856.61 268.99 a10.2 10.2 0 1 0 20.4 0 a10.2 10.2 0 1 0 -20.4 0zM856.61 370.99 a10.2 10.2 0 1 0 20.4 0 a10.2 10.2 0 1 0 -20.4 0zM679.94 268.99 a10.2 10.2 0 1 0 20.4 0 a10.2 10.2 0 1 0 -20.4 0zM1033.29 64.99 a10.2 10.2 0 1 0 20.4 0 a10.2 10.2 0 1 0 -20.4 0zM1121.63 115.99 a10.2 10.2 0 1 0 20.4 0 a10.2 10.2 0 1 0 -20.4 0zM1121.63 217.99 a10.2 10.2 0 1 0 20.4 0 a10.2 10.2 0 1 0 -20.4 0zM1033.29 268.99 a10.2 10.2 0 1 0 20.4 0 a10.2 10.2 0 1 0 -20.4 0zM944.95 217.99 a10.2 10.2 0 1 0 20.4 0 a10.2 10.2 0 1 0 -20.4 0zM944.95 115.99 a10.2 10.2 0 1 0 20.4 0 a10.2 10.2 0 1 0 -20.4 0zM944.95 523.99 a10.2 10.2 0 1 0 20.4 0 a10.2 10.2 0 1 0 -20.4 0zM1033.29 574.99 a10.2 10.2 0 1 0 20.4 0 a10.2 10.2 0 1 0 -20.4 0zM1033.29 676.99 a10.2 10.2 0 1 0 20.4 0 a10.2 10.2 0 1 0 -20.4 0zM944.95 727.99 a10.2 10.2 0 1 0 20.4 0 a10.2 10.2 0 1 0 -20.4 0zM856.61 676.99 a10.2 10.2 0 1 0 20.4 0 a10.2 10.2 0 1 0 -20.4 0zM856.61 574.99 a10.2 10.2 0 1 0 20.4 0 a10.2 10.2 0 1 0 -20.4 0zM1121.63 -88.01 a10.2 10.2 0 1 0 20.4 0 a10.2 10.2 0 1 0 -20.4 0zM1209.96 -37.01 a10.2 10.2 0 1 0 20.4 0 a10.2 10.2 0 1 0 -20.4 0zM1209.96 64.99 a10.2 10.2 0 1 0 20.4 0 a10.2 10.2 0 1 0 -20.4 0zM1033.29 -37.01 a10.2 10.2 0 1 0 20.4 0 a10.2 10.2 0 1 0 -20.4 0zM1298.3 -88.01 a10.2 10.2 0 1 0 20.4 0 a10.2 10.2 0 1 0 -20.4 0zM1386.64 -37.01 a10.2 10.2 0 1 0 20.4 0 a10.2 10.2 0 1 0 -20.4 0zM1386.64 64.99 a10.2 10.2 0 1 0 20.4 0 a10.2 10.2 0 1 0 -20.4 0zM1298.3 115.99 a10.2 10.2 0 1 0 20.4 0 a10.2 10.2 0 1 0 -20.4 0zM1474.97 115.99 a10.2 10.2 0 1 0 20.4 0 a10.2 10.2 0 1 0 -20.4 0zM1474.97 217.99 a10.2 10.2 0 1 0 20.4 0 a10.2 10.2 0 1 0 -20.4 0zM1386.64 268.99 a10.2 10.2 0 1 0 20.4 0 a10.2 10.2 0 1 0 -20.4 0zM1298.3 217.99 a10.2 10.2 0 1 0 20.4 0 a10.2 10.2 0 1 0 -20.4 0zM1386.64 370.99 a10.2 10.2 0 1 0 20.4 0 a10.2 10.2 0 1 0 -20.4 0zM1298.3 421.99 a10.2 10.2 0 1 0 20.4 0 a10.2 10.2 0 1 0 -20.4 0zM1209.96 370.99 a10.2 10.2 0 1 0 20.4 0 a10.2 10.2 0 1 0 -20.4 0zM1209.96 268.99 a10.2 10.2 0 1 0 20.4 0 a10.2 10.2 0 1 0 -20.4 0zM1474.97 421.99 a10.2 10.2 0 1 0 20.4 0 a10.2 10.2 0 1 0 -20.4 0zM1474.97 523.99 a10.2 10.2 0 1 0 20.4 0 a10.2 10.2 0 1 0 -20.4 0zM1386.64 574.99 a10.2 10.2 0 1 0 20.4 0 a10.2 10.2 0 1 0 -20.4 0zM1298.3 523.99 a10.2 10.2 0 1 0 20.4 0 a10.2 10.2 0 1 0 -20.4 0zM1386.64 676.99 a10.2 10.2 0 1 0 20.4 0 a10.2 10.2 0 1 0 -20.4 0zM1298.3 727.99 a10.2 10.2 0 1 0 20.4 0 a10.2 10.2 0 1 0 -20.4 0zM1209.96 676.99 a10.2 10.2 0 1 0 20.4 0 a10.2 10.2 0 1 0 -20.4 0zM1209.96 574.99 a10.2 10.2 0 1 0 20.4 0 a10.2 10.2 0 1 0 -20.4 0z" fill="rgba(3, 223, 59, 0.15)"></path><path d="M43.91 207.65L87.22 232.65L87.22 282.65L43.91 307.65L0.61 282.65L0.61 232.65zM0.61 432.65L43.91 457.65L43.91 507.65L0.61 532.65L-42.69 507.65L-42.69 457.65zM130.52 57.65L173.82 82.65L173.82 132.65L130.52 157.65L87.22 132.65L87.22 82.65zM87.22 282.65L130.52 307.65L130.52 357.65L87.22 382.65L43.91 357.65L43.91 307.65zM173.82 -17.35L217.12 7.65L217.12 57.65L173.82 82.65L130.52 57.65L130.52 7.65zM217.12 207.65L260.43 232.65L260.43 282.65L217.12 307.65L173.82 282.65L173.82 232.65zM217.12 357.65L260.43 382.65L260.43 432.65L217.12 457.65L173.82 432.65L173.82 382.65zM173.82 432.65L217.12 457.65L217.12 507.65L173.82 532.65L130.52 507.65L130.52 457.65zM260.43 -17.35L303.73 7.65L303.73 57.65L260.43 82.65L217.12 57.65L217.12 7.65zM303.73 207.65L347.03 232.65L347.03 282.65L303.73 307.65L260.43 282.65L260.43 232.65zM390.33 57.65L433.64 82.65L433.64 132.65L390.33 157.65L347.03 132.65L347.03 82.65zM390.33 207.65L433.64 232.65L433.64 282.65L390.33 307.65L347.03 282.65L347.03 232.65zM433.64 282.65L476.94 307.65L476.94 357.65L433.64 382.65L390.33 357.65L390.33 307.65zM650.15 57.65L693.45 82.65L693.45 132.65L650.15 157.65L606.85 132.65L606.85 82.65zM650.15 357.65L693.45 382.65L693.45 432.65L650.15 457.65L606.85 432.65L606.85 382.65zM736.75 357.65L780.06 382.65L780.06 432.65L736.75 457.65L693.45 432.65L693.45 382.65zM823.36 207.65L866.66 232.65L866.66 282.65L823.36 307.65L780.06 282.65L780.06 232.65zM780.06 282.65L823.36 307.65L823.36 357.65L780.06 382.65L736.75 357.65L736.75 307.65zM823.36 357.65L866.66 382.65L866.66 432.65L823.36 457.65L780.06 432.65L780.06 382.65zM909.96 357.65L953.27 382.65L953.27 432.65L909.96 457.65L866.66 432.65L866.66 382.65zM866.66 432.65L909.96 457.65L909.96 507.65L866.66 532.65L823.36 507.65L823.36 457.65zM909.96 507.65L953.27 532.65L953.27 582.65L909.96 607.65L866.66 582.65L866.66 532.65zM953.27 -17.35L996.57 7.65L996.57 57.65L953.27 82.65L909.96 57.65L909.96 7.65zM996.57 357.65L1039.87 382.65L1039.87 432.65L996.57 457.65L953.27 432.65L953.27 382.65zM953.27 432.65L996.57 457.65L996.57 507.65L953.27 532.65L909.96 507.65L909.96 457.65zM996.57 507.65L1039.87 532.65L1039.87 582.65L996.57 607.65L953.27 582.65L953.27 532.65zM1039.87 -17.35L1083.17 7.65L1083.17 57.65L1039.87 82.65L996.57 57.65L996.57 7.65zM1083.17 357.65L1126.47 382.65L1126.47 432.65L1083.17 457.65L1039.87 432.65L1039.87 382.65zM1039.87 432.65L1083.17 457.65L1083.17 507.65L1039.87 532.65L996.57 507.65L996.57 457.65zM1083.17 507.65L1126.47 532.65L1126.47 582.65L1083.17 607.65L1039.87 582.65L1039.87 532.65zM1126.47 132.65L1169.78 157.65L1169.78 207.65L1126.47 232.65L1083.17 207.65L1083.17 157.65zM1169.78 507.65L1213.08 532.65L1213.08 582.65L1169.78 607.65L1126.47 582.65L1126.47 532.65zM1213.08 -17.35L1256.38 7.65L1256.38 57.65L1213.08 82.65L1169.78 57.65L1169.78 7.65zM1213.08 282.65L1256.38 307.65L1256.38 357.65L1213.08 382.65L1169.78 357.65L1169.78 307.65zM1342.99 57.65L1386.29 82.65L1386.29 132.65L1342.99 157.65L1299.68 132.65L1299.68 82.65zM1342.99 507.65L1386.29 532.65L1386.29 582.65L1342.99 607.65L1299.68 582.65L1299.68 532.65zM1386.29 432.65L1429.59 457.65L1429.59 507.65L1386.29 532.65L1342.99 507.65L1342.99 457.65z" stroke="rgba(0, 0, 0, 0)" stroke-width="2"></path></g><defs><mask id="SvgjsMask1105"><rect width="1440" height="560" fill="#ffffff"></rect></mask></defs></svg>