<svg xmlns="http://www.w3.org/2000/svg" version="1.1" xmlns:xlink="http://www.w3.org/1999/xlink" xmlns:svgjs="http://svgjs.dev/svgjs" width="1440" height="560" preserveAspectRatio="none" viewBox="0 0 1440 560"><g mask="url(&quot;#SvgjsMask1107&quot;)" fill="none"><path d="M64.95 -64.93L144.63 -18.93L144.63 73.07L64.95 119.07L-14.73 73.07L-14.73 -18.93zM144.63 73.07L224.3 119.07L224.3 211.07L144.63 257.07L64.95 211.07L64.95 119.07zM144.63 349.07L224.3 395.07L224.3 487.07L144.63 533.07L64.95 487.07L64.95 395.07zM303.98 73.07L383.66 119.07L383.66 211.07L303.98 257.07L224.3 211.07L224.3 119.07zM303.98 349.07L383.66 395.07L383.66 487.07L303.98 533.07L224.3 487.07L224.3 395.07zM463.33 73.07L543.01 119.07L543.01 211.07L463.33 257.07L383.66 211.07L383.66 119.07zM463.33 349.07L543.01 395.07L543.01 487.07L463.33 533.07L383.66 487.07L383.66 395.07zM543.01 -64.93L622.69 -18.93L622.69 73.07L543.01 119.07L463.33 73.07L463.33 -18.93zM543.01 211.07L622.69 257.07L622.69 349.07L543.01 395.07L463.33 349.07L463.33 257.07zM543.01 487.07L622.69 533.07L622.69 625.07L543.01 671.07L463.33 625.07L463.33 533.07zM702.36 487.07L782.04 533.07L782.04 625.07L702.36 671.07L622.69 625.07L622.69 533.07zM861.72 487.07L941.39 533.07L941.39 625.07L861.72 671.07L782.04 625.07L782.04 533.07zM1021.07 -64.93L1100.75 -18.93L1100.75 73.07L1021.07 119.07L941.39 73.07L941.39 -18.93zM1100.75 73.07L1180.42 119.07L1180.42 211.07L1100.75 257.07L1021.07 211.07L1021.07 119.07zM1021.07 211.07L1100.75 257.07L1100.75 349.07L1021.07 395.07L941.39 349.07L941.39 257.07zM1100.75 349.07L1180.42 395.07L1180.42 487.07L1100.75 533.07L1021.07 487.07L1021.07 395.07zM1180.42 -64.93L1260.1 -18.93L1260.1 73.07L1180.42 119.07L1100.75 73.07L1100.75 -18.93zM1260.1 73.07L1339.78 119.07L1339.78 211.07L1260.1 257.07L1180.42 211.07L1180.42 119.07zM1180.42 487.07L1260.1 533.07L1260.1 625.07L1180.42 671.07L1100.75 625.07L1100.75 533.07zM1339.78 211.07L1419.45 257.07L1419.45 349.07L1339.78 395.07L1260.1 349.07L1260.1 257.07zM1419.45 349.07L1499.13 395.07L1499.13 487.07L1419.45 533.07L1339.78 487.07L1339.78 395.07z" stroke="rgba(3, 223, 59, 0.09)" stroke-width="2"></path><path d="M55.75 -64.93 a9.2 9.2 0 1 0 18.4 0 a9.2 9.2 0 1 0 -18.4 0zM135.43 -18.93 a9.2 9.2 0 1 0 18.4 0 a9.2 9.2 0 1 0 -18.4 0zM135.43 73.07 a9.2 9.2 0 1 0 18.4 0 a9.2 9.2 0 1 0 -18.4 0zM55.75 119.07 a9.2 9.2 0 1 0 18.4 0 a9.2 9.2 0 1 0 -18.4 0zM-23.93 73.07 a9.2 9.2 0 1 0 18.4 0 a9.2 9.2 0 1 0 -18.4 0zM-23.93 -18.93 a9.2 9.2 0 1 0 18.4 0 a9.2 9.2 0 1 0 -18.4 0zM215.1 119.07 a9.2 9.2 0 1 0 18.4 0 a9.2 9.2 0 1 0 -18.4 0zM215.1 211.07 a9.2 9.2 0 1 0 18.4 0 a9.2 9.2 0 1 0 -18.4 0zM135.43 257.07 a9.2 9.2 0 1 0 18.4 0 a9.2 9.2 0 1 0 -18.4 0zM55.75 211.07 a9.2 9.2 0 1 0 18.4 0 a9.2 9.2 0 1 0 -18.4 0zM135.43 349.07 a9.2 9.2 0 1 0 18.4 0 a9.2 9.2 0 1 0 -18.4 0zM215.1 395.07 a9.2 9.2 0 1 0 18.4 0 a9.2 9.2 0 1 0 -18.4 0zM215.1 487.07 a9.2 9.2 0 1 0 18.4 0 a9.2 9.2 0 1 0 -18.4 0zM135.43 533.07 a9.2 9.2 0 1 0 18.4 0 a9.2 9.2 0 1 0 -18.4 0zM55.75 487.07 a9.2 9.2 0 1 0 18.4 0 a9.2 9.2 0 1 0 -18.4 0zM55.75 395.07 a9.2 9.2 0 1 0 18.4 0 a9.2 9.2 0 1 0 -18.4 0zM294.78 73.07 a9.2 9.2 0 1 0 18.4 0 a9.2 9.2 0 1 0 -18.4 0zM374.46 119.07 a9.2 9.2 0 1 0 18.4 0 a9.2 9.2 0 1 0 -18.4 0zM374.46 211.07 a9.2 9.2 0 1 0 18.4 0 a9.2 9.2 0 1 0 -18.4 0zM294.78 257.07 a9.2 9.2 0 1 0 18.4 0 a9.2 9.2 0 1 0 -18.4 0zM294.78 349.07 a9.2 9.2 0 1 0 18.4 0 a9.2 9.2 0 1 0 -18.4 0zM374.46 395.07 a9.2 9.2 0 1 0 18.4 0 a9.2 9.2 0 1 0 -18.4 0zM374.46 487.07 a9.2 9.2 0 1 0 18.4 0 a9.2 9.2 0 1 0 -18.4 0zM294.78 533.07 a9.2 9.2 0 1 0 18.4 0 a9.2 9.2 0 1 0 -18.4 0zM454.13 73.07 a9.2 9.2 0 1 0 18.4 0 a9.2 9.2 0 1 0 -18.4 0zM533.81 119.07 a9.2 9.2 0 1 0 18.4 0 a9.2 9.2 0 1 0 -18.4 0zM533.81 211.07 a9.2 9.2 0 1 0 18.4 0 a9.2 9.2 0 1 0 -18.4 0zM454.13 257.07 a9.2 9.2 0 1 0 18.4 0 a9.2 9.2 0 1 0 -18.4 0zM454.13 349.07 a9.2 9.2 0 1 0 18.4 0 a9.2 9.2 0 1 0 -18.4 0zM533.81 395.07 a9.2 9.2 0 1 0 18.4 0 a9.2 9.2 0 1 0 -18.4 0zM533.81 487.07 a9.2 9.2 0 1 0 18.4 0 a9.2 9.2 0 1 0 -18.4 0zM454.13 533.07 a9.2 9.2 0 1 0 18.4 0 a9.2 9.2 0 1 0 -18.4 0zM533.81 -64.93 a9.2 9.2 0 1 0 18.4 0 a9.2 9.2 0 1 0 -18.4 0zM613.49 -18.93 a9.2 9.2 0 1 0 18.4 0 a9.2 9.2 0 1 0 -18.4 0zM613.49 73.07 a9.2 9.2 0 1 0 18.4 0 a9.2 9.2 0 1 0 -18.4 0zM454.13 -18.93 a9.2 9.2 0 1 0 18.4 0 a9.2 9.2 0 1 0 -18.4 0zM613.49 257.07 a9.2 9.2 0 1 0 18.4 0 a9.2 9.2 0 1 0 -18.4 0zM613.49 349.07 a9.2 9.2 0 1 0 18.4 0 a9.2 9.2 0 1 0 -18.4 0zM613.49 533.07 a9.2 9.2 0 1 0 18.4 0 a9.2 9.2 0 1 0 -18.4 0zM613.49 625.07 a9.2 9.2 0 1 0 18.4 0 a9.2 9.2 0 1 0 -18.4 0zM533.81 671.07 a9.2 9.2 0 1 0 18.4 0 a9.2 9.2 0 1 0 -18.4 0zM454.13 625.07 a9.2 9.2 0 1 0 18.4 0 a9.2 9.2 0 1 0 -18.4 0zM693.16 487.07 a9.2 9.2 0 1 0 18.4 0 a9.2 9.2 0 1 0 -18.4 0zM772.84 533.07 a9.2 9.2 0 1 0 18.4 0 a9.2 9.2 0 1 0 -18.4 0zM772.84 625.07 a9.2 9.2 0 1 0 18.4 0 a9.2 9.2 0 1 0 -18.4 0zM693.16 671.07 a9.2 9.2 0 1 0 18.4 0 a9.2 9.2 0 1 0 -18.4 0zM852.52 487.07 a9.2 9.2 0 1 0 18.4 0 a9.2 9.2 0 1 0 -18.4 0zM932.19 533.07 a9.2 9.2 0 1 0 18.4 0 a9.2 9.2 0 1 0 -18.4 0zM932.19 625.07 a9.2 9.2 0 1 0 18.4 0 a9.2 9.2 0 1 0 -18.4 0zM852.52 671.07 a9.2 9.2 0 1 0 18.4 0 a9.2 9.2 0 1 0 -18.4 0zM1011.87 -64.93 a9.2 9.2 0 1 0 18.4 0 a9.2 9.2 0 1 0 -18.4 0zM1091.55 -18.93 a9.2 9.2 0 1 0 18.4 0 a9.2 9.2 0 1 0 -18.4 0zM1091.55 73.07 a9.2 9.2 0 1 0 18.4 0 a9.2 9.2 0 1 0 -18.4 0zM1011.87 119.07 a9.2 9.2 0 1 0 18.4 0 a9.2 9.2 0 1 0 -18.4 0zM932.19 73.07 a9.2 9.2 0 1 0 18.4 0 a9.2 9.2 0 1 0 -18.4 0zM932.19 -18.93 a9.2 9.2 0 1 0 18.4 0 a9.2 9.2 0 1 0 -18.4 0zM1171.22 119.07 a9.2 9.2 0 1 0 18.4 0 a9.2 9.2 0 1 0 -18.4 0zM1171.22 211.07 a9.2 9.2 0 1 0 18.4 0 a9.2 9.2 0 1 0 -18.4 0zM1091.55 257.07 a9.2 9.2 0 1 0 18.4 0 a9.2 9.2 0 1 0 -18.4 0zM1011.87 211.07 a9.2 9.2 0 1 0 18.4 0 a9.2 9.2 0 1 0 -18.4 0zM1091.55 349.07 a9.2 9.2 0 1 0 18.4 0 a9.2 9.2 0 1 0 -18.4 0zM1011.87 395.07 a9.2 9.2 0 1 0 18.4 0 a9.2 9.2 0 1 0 -18.4 0zM932.19 349.07 a9.2 9.2 0 1 0 18.4 0 a9.2 9.2 0 1 0 -18.4 0zM932.19 257.07 a9.2 9.2 0 1 0 18.4 0 a9.2 9.2 0 1 0 -18.4 0zM1171.22 395.07 a9.2 9.2 0 1 0 18.4 0 a9.2 9.2 0 1 0 -18.4 0zM1171.22 487.07 a9.2 9.2 0 1 0 18.4 0 a9.2 9.2 0 1 0 -18.4 0zM1091.55 533.07 a9.2 9.2 0 1 0 18.4 0 a9.2 9.2 0 1 0 -18.4 0zM1011.87 487.07 a9.2 9.2 0 1 0 18.4 0 a9.2 9.2 0 1 0 -18.4 0zM1171.22 -64.93 a9.2 9.2 0 1 0 18.4 0 a9.2 9.2 0 1 0 -18.4 0zM1250.9 -18.93 a9.2 9.2 0 1 0 18.4 0 a9.2 9.2 0 1 0 -18.4 0zM1250.9 73.07 a9.2 9.2 0 1 0 18.4 0 a9.2 9.2 0 1 0 -18.4 0zM1330.58 119.07 a9.2 9.2 0 1 0 18.4 0 a9.2 9.2 0 1 0 -18.4 0zM1330.58 211.07 a9.2 9.2 0 1 0 18.4 0 a9.2 9.2 0 1 0 -18.4 0zM1250.9 257.07 a9.2 9.2 0 1 0 18.4 0 a9.2 9.2 0 1 0 -18.4 0zM1250.9 533.07 a9.2 9.2 0 1 0 18.4 0 a9.2 9.2 0 1 0 -18.4 0zM1250.9 625.07 a9.2 9.2 0 1 0 18.4 0 a9.2 9.2 0 1 0 -18.4 0zM1171.22 671.07 a9.2 9.2 0 1 0 18.4 0 a9.2 9.2 0 1 0 -18.4 0zM1091.55 625.07 a9.2 9.2 0 1 0 18.4 0 a9.2 9.2 0 1 0 -18.4 0zM1410.25 257.07 a9.2 9.2 0 1 0 18.4 0 a9.2 9.2 0 1 0 -18.4 0zM1410.25 349.07 a9.2 9.2 0 1 0 18.4 0 a9.2 9.2 0 1 0 -18.4 0zM1330.58 395.07 a9.2 9.2 0 1 0 18.4 0 a9.2 9.2 0 1 0 -18.4 0zM1250.9 349.07 a9.2 9.2 0 1 0 18.4 0 a9.2 9.2 0 1 0 -18.4 0zM1489.93 395.07 a9.2 9.2 0 1 0 18.4 0 a9.2 9.2 0 1 0 -18.4 0zM1489.93 487.07 a9.2 9.2 0 1 0 18.4 0 a9.2 9.2 0 1 0 -18.4 0zM1410.25 533.07 a9.2 9.2 0 1 0 18.4 0 a9.2 9.2 0 1 0 -18.4 0zM1330.58 487.07 a9.2 9.2 0 1 0 18.4 0 a9.2 9.2 0 1 0 -18.4 0z" fill="rgba(3, 223, 59, 0.09)"></path><path d="M48.1 270.86L91.4 295.86L91.4 345.86L48.1 370.86L4.8 345.86L4.8 295.86zM134.71 420.86L178.01 445.86L178.01 495.86L134.71 520.86L91.4 495.86L91.4 445.86zM178.01 495.86L221.31 520.86L221.31 570.86L178.01 595.86L134.71 570.86L134.71 520.86zM307.92 270.86L351.22 295.86L351.22 345.86L307.92 370.86L264.61 345.86L264.61 295.86zM351.22 345.86L394.52 370.86L394.52 420.86L351.22 445.86L307.92 420.86L307.92 370.86zM394.52 120.86L437.82 145.86L437.82 195.86L394.52 220.86L351.22 195.86L351.22 145.86zM524.43 195.86L567.73 220.86L567.73 270.86L524.43 295.86L481.13 270.86L481.13 220.86zM481.13 270.86L524.43 295.86L524.43 345.86L481.13 370.86L437.82 345.86L437.82 295.86zM524.43 345.86L567.73 370.86L567.73 420.86L524.43 445.86L481.13 420.86L481.13 370.86zM611.03 195.86L654.34 220.86L654.34 270.86L611.03 295.86L567.73 270.86L567.73 220.86zM567.73 270.86L611.03 295.86L611.03 345.86L567.73 370.86L524.43 345.86L524.43 295.86zM611.03 345.86L654.34 370.86L654.34 420.86L611.03 445.86L567.73 420.86L567.73 370.86zM697.64 195.86L740.94 220.86L740.94 270.86L697.64 295.86L654.34 270.86L654.34 220.86zM697.64 495.86L740.94 520.86L740.94 570.86L697.64 595.86L654.34 570.86L654.34 520.86zM784.24 495.86L827.55 520.86L827.55 570.86L784.24 595.86L740.94 570.86L740.94 520.86zM914.15 420.86L957.45 445.86L957.45 495.86L914.15 520.86L870.85 495.86L870.85 445.86zM957.45 495.86L1000.76 520.86L1000.76 570.86L957.45 595.86L914.15 570.86L914.15 520.86zM1000.76 -29.14L1044.06 -4.14L1044.06 45.86L1000.76 70.86L957.45 45.86L957.45 -4.14zM1000.76 420.86L1044.06 445.86L1044.06 495.86L1000.76 520.86L957.45 495.86L957.45 445.86zM1130.66 345.86L1173.96 370.86L1173.96 420.86L1130.66 445.86L1087.36 420.86L1087.36 370.86zM1087.36 420.86L1130.66 445.86L1130.66 495.86L1087.36 520.86L1044.06 495.86L1044.06 445.86zM1217.27 45.86L1260.57 70.86L1260.57 120.86L1217.27 145.86L1173.96 120.86L1173.96 70.86zM1303.87 195.86L1347.17 220.86L1347.17 270.86L1303.87 295.86L1260.57 270.86L1260.57 220.86zM1390.48 495.86L1433.78 520.86L1433.78 570.86L1390.48 595.86L1347.17 570.86L1347.17 520.86zM1433.78 270.86L1477.08 295.86L1477.08 345.86L1433.78 370.86L1390.48 345.86L1390.48 295.86zM1477.08 345.86L1520.38 370.86L1520.38 420.86L1477.08 445.86L1433.78 420.86L1433.78 370.86z" stroke="rgba(0, 0, 0, 0)" stroke-width="2"></path></g><defs><mask id="SvgjsMask1107"><rect width="1440" height="560" fill="#ffffff"></rect></mask></defs></svg>